<svg width="41" height="4" viewBox="0 0 41 4" fill="none" xmlns="http://www.w3.org/2000/svg">
<path d="M1 3L2.40158 1.91732C3.47473 1.08834 4.99351 1.12465 6.03953 1.98761V1.98761C7.0952 2.85854 8.63523 2.87093 9.69091 2V2C10.7466 1.12907 12.2716 1.12907 13.3273 2V2C14.3829 2.87093 15.908 2.87093 16.9636 2V2C18.0193 1.12907 19.5443 1.12907 20.6 2V2C21.6557 2.87093 23.1807 2.87093 24.2364 2V2C25.292 1.12907 26.8171 1.12907 27.8727 2V2C28.9284 2.87093 30.4534 2.87093 31.5091 2V2C32.5648 1.12907 34.0902 1.12944 35.1459 2.00037V2.00037C36.2013 2.87107 37.7261 2.87219 38.7824 2.00253L40 1" stroke="#2F70D9" stroke-width="2" stroke-linecap="round"/>
</svg>
