<svg width="30" height="30" viewBox="0 0 30 30" fill="none" xmlns="http://www.w3.org/2000/svg">
<rect width="30" height="30" rx="5" fill="#C652EE"/>
<path d="M14.6052 7.50218C13.3369 7.51672 10.6102 7.71455 9.08503 9.04269C7.95057 10.1097 7.55447 11.6872 7.50805 13.6379C7.46952 15.5816 7.4231 19.2318 11.1297 20.2256V21.7394C11.1297 21.7394 11.1065 22.3451 11.5283 22.4693C12.0479 22.6255 12.3437 22.1595 12.8376 21.6588L13.7587 20.6701C16.2948 20.8702 18.2373 20.4089 18.461 20.3405C18.9756 20.1844 21.8743 19.8328 22.3479 16.1822C22.8339 12.412 22.1113 10.0366 20.807 8.96205H20.7991C20.4054 8.61795 18.8235 7.52375 15.2892 7.51156C15.2892 7.51156 15.027 7.49468 14.6052 7.50171V7.50218ZM14.6487 8.56216C15.0087 8.55981 15.2275 8.57435 15.2275 8.57435C18.219 8.58185 19.6468 9.43648 19.9836 9.72433C21.0821 10.6179 21.6481 12.7594 21.2337 15.907C20.84 18.9589 18.4891 19.1521 18.054 19.2838C17.8688 19.34 16.158 19.7404 14.0027 19.6087C14.0027 19.6087 12.3975 21.4473 11.8957 21.9208C11.8162 22.0038 11.7234 22.0282 11.6641 22.016C11.5792 21.9963 11.5535 21.8965 11.5584 21.7596L11.5737 19.2472C8.43013 18.4221 8.61534 15.3088 8.64893 13.6825C8.68745 12.0562 9.00897 10.7257 9.96612 9.82466C11.2547 8.71874 13.57 8.56966 14.6477 8.56216H14.6487ZM14.8857 10.188C14.8599 10.1877 14.8342 10.1924 14.8102 10.2016C14.7862 10.2108 14.7644 10.2244 14.746 10.2417C14.7276 10.2589 14.713 10.2795 14.7029 10.3021C14.6929 10.3248 14.6878 10.3491 14.6877 10.3736C14.6877 10.4786 14.7776 10.5616 14.8857 10.5616C15.3754 10.5528 15.8621 10.6361 16.3177 10.8066C16.7734 10.9772 17.1889 11.2317 17.5404 11.5555C18.258 12.217 18.6077 13.1058 18.621 14.268C18.621 14.3707 18.7084 14.456 18.8191 14.456V14.4485C18.8712 14.4486 18.9213 14.4292 18.9584 14.3944C18.9955 14.3596 19.0166 14.3124 19.0171 14.2629C19.0411 13.7158 18.9476 13.1699 18.7424 12.6582C18.5372 12.1465 18.2245 11.6798 17.8234 11.2864C17.0416 10.5612 16.0508 10.1875 14.8857 10.1875V10.188ZM12.2825 10.6179C12.1427 10.5985 12.0001 10.6251 11.8785 10.6934H11.8681C11.5857 10.8505 11.3313 11.0491 11.1144 11.2817C10.9341 11.4795 10.8364 11.6797 10.8107 11.8724C10.7954 11.9873 10.8057 12.1021 10.8418 12.2118L10.8546 12.2193C11.0576 12.7856 11.3228 13.3304 11.6468 13.8433C12.0642 14.5638 12.5778 15.2302 13.1749 15.8259L13.1927 15.8502L13.2208 15.8699L13.2386 15.8896L13.2594 15.9065C13.8892 16.475 14.5929 16.9648 15.3535 17.364C16.2227 17.8131 16.7502 18.0255 17.0667 18.1136V18.1183C17.1596 18.1451 17.2441 18.1572 17.329 18.1572C17.5988 18.1385 17.8542 18.0345 18.0545 17.8619C18.2985 17.6559 18.5054 17.4135 18.6669 17.1442V17.1395C18.8186 16.8685 18.7672 16.6121 18.5484 16.4386C18.1102 16.075 17.6364 15.7521 17.1334 15.4743C16.7966 15.3008 16.4543 15.4058 16.3155 15.5816L16.0197 15.9356C15.8681 16.1114 15.5925 16.087 15.5925 16.087L15.5846 16.0917C13.5295 15.5933 12.9813 13.6182 12.9813 13.6182C12.9813 13.6182 12.9556 13.3496 13.1458 13.2127L13.5162 12.9296C13.6935 12.7927 13.817 12.4683 13.6268 12.1481C13.3361 11.67 12.9967 11.2201 12.6134 10.8049C12.5296 10.7071 12.412 10.6405 12.2815 10.6169L12.2825 10.6179ZM15.2275 11.1748C14.9653 11.1748 14.9653 11.5508 15.23 11.5508C15.5561 11.5558 15.878 11.6218 16.1772 11.745C16.4764 11.8681 16.7471 12.046 16.9739 12.2686C17.1807 12.4851 17.3397 12.7389 17.4413 13.0149C17.543 13.2909 17.5852 13.5834 17.5656 13.8752C17.5665 13.9245 17.5877 13.9716 17.6247 14.0063C17.6617 14.041 17.7116 14.0606 17.7636 14.0608L17.7715 14.0706C17.8239 14.0703 17.8741 14.0504 17.9111 14.0152C17.9482 13.98 17.9692 13.9324 17.9696 13.8827C17.9874 13.1377 17.7434 12.5128 17.2648 12.0121C16.7838 11.5114 16.1126 11.2306 15.2557 11.1748H15.2275ZM15.552 12.1856C15.2818 12.1781 15.2715 12.5616 15.5392 12.5691C16.1901 12.6009 16.5062 12.9132 16.5477 13.5554C16.5486 13.6042 16.5695 13.6507 16.6061 13.6849C16.6427 13.7192 16.6919 13.7385 16.7433 13.7387H16.7512C16.7776 13.7377 16.8035 13.7316 16.8274 13.7209C16.8513 13.7102 16.8727 13.6951 16.8905 13.6765C16.9082 13.6579 16.9218 13.6361 16.9305 13.6124C16.9392 13.5887 16.9429 13.5636 16.9413 13.5386C16.8949 12.7013 16.4138 12.2296 15.5599 12.186H15.552V12.1856Z" fill="white"/>
</svg>
