<svg width="30" height="30" viewBox="0 0 30 30" fill="none" xmlns="http://www.w3.org/2000/svg">
<rect width="30" height="30" rx="5" fill="#B8D902"/>
<mask id="mask0_15_1398" style="mask-type:luminance" maskUnits="userSpaceOnUse" x="7" y="7" width="16" height="16">
<path d="M7.5 7.5H22.5V22.5H7.5V7.5Z" fill="white"/>
</mask>
<g mask="url(#mask0_15_1398)">
<path fill-rule="evenodd" clip-rule="evenodd" d="M18.3844 16.4888C18.1981 16.3957 17.285 15.9469 17.115 15.8844C16.945 15.8225 16.8213 15.7919 16.6969 15.9782C16.5731 16.1632 16.2175 16.5819 16.1094 16.7057C16.0006 16.83 15.8925 16.845 15.7069 16.7525C15.5213 16.6588 14.9225 16.4632 14.2131 15.8307C13.6613 15.3382 13.2881 14.73 13.18 14.5438C13.0719 14.3582 13.1681 14.2575 13.2613 14.165C13.345 14.0819 13.4469 13.9482 13.54 13.84C13.6331 13.7313 13.6638 13.6538 13.7256 13.5294C13.7881 13.4057 13.7569 13.2975 13.71 13.2044C13.6638 13.1113 13.2925 12.1969 13.1375 11.825C12.9869 11.4632 12.8338 11.5125 12.72 11.5063C12.6113 11.5013 12.4875 11.5 12.3638 11.5C12.24 11.5 12.0388 11.5463 11.8688 11.7325C11.6981 11.9182 11.2188 12.3675 11.2188 13.2819C11.2188 14.1957 11.8838 15.0788 11.9769 15.2032C12.07 15.3269 13.2863 17.2031 15.1494 18.0075C15.5931 18.1988 15.9388 18.3132 16.2081 18.3982C16.6531 18.54 17.0581 18.52 17.3781 18.4719C17.7344 18.4188 18.4769 18.0225 18.6319 17.5888C18.7863 17.155 18.7863 16.7832 18.74 16.7057C18.6938 16.6282 18.57 16.5819 18.3838 16.4888H18.3844ZM14.9956 21.1157H14.9931C13.8865 21.1159 12.8002 20.8184 11.8481 20.2544L11.6231 20.1207L9.28438 20.7344L9.90875 18.4544L9.76188 18.2206C9.14321 17.2359 8.81581 16.0961 8.8175 14.9332C8.81875 11.5269 11.59 8.75565 14.9981 8.75565C16.6481 8.75565 18.1994 9.3994 19.3656 10.5669C19.9409 11.1398 20.3968 11.821 20.707 12.5712C21.0173 13.3214 21.1757 14.1257 21.1731 14.9375C21.1719 18.3438 18.4006 21.1157 14.9956 21.1157ZM20.2531 9.68003C19.5645 8.98685 18.7451 8.43724 17.8426 8.06303C16.94 7.68882 15.9721 7.49745 14.995 7.50003C10.8988 7.50003 7.56375 10.8344 7.5625 14.9325C7.5606 16.2367 7.90273 17.5184 8.55438 18.6481L7.5 22.5L11.44 21.4663C12.5299 22.0601 13.7513 22.3712 14.9925 22.3713H14.9956C19.0919 22.3713 22.4269 19.0369 22.4281 14.9382C22.4311 13.9614 22.2405 12.9938 21.8671 12.0913C21.4938 11.1888 20.9452 10.3692 20.2531 9.68003Z" fill="white"/>
</g>
</svg>
